<svg xmlns="http://www.w3.org/2000/svg" viewBox="0 0 100 100">
  <defs>
    <linearGradient id="bg" x1="0" y1="0" x2="1" y2="1">
      <stop offset="0%" stop-color="#6c5ce7"/>
      <stop offset="100%" stop-color="#fd79a8"/>
    </linearGradient>
  </defs>
  <rect width="100" height="100" rx="18" fill="url(#bg)"/>
  
  <!-- Clean document shape with folded corner -->
  <path d="M28 18 h28 l16 16 v48 c0 3-2.5 5.5-5.5 5.5 h-38.5 c-3 0-5.5-2.5-5.5-5.5 v-58.5 c0-3 2.5-5.5 5.5-5.5z" fill="rgba(255,255,255,0.95)"/>
  <path d="M56 18 v11 c0 2.8 2.2 5 5 5 h11z" fill="rgba(255,255,255,0.6)"/>
  
  <!-- Three body lines suggesting content -->
  <rect x="33" y="40" width="28" height="3" rx="1.5" fill="#6c5ce7" opacity="0.25"/>
  <rect x="33" y="48" width="22" height="3" rx="1.5" fill="#6c5ce7" opacity="0.25"/>
  <rect x="33" y="56" width="25" height="3" rx="1.5" fill="#6c5ce7" opacity="0.25"/>
  
  <!-- PDF label -->
  <rect x="44" y="66" width="34" height="20" rx="4" fill="white"/>
  <text x="61" y="80.5" text-anchor="middle" font-family="system-ui,-apple-system,Helvetica,Arial,sans-serif" font-weight="800" font-size="13" fill="#6c5ce7" letter-spacing="-0.3">PDF</text>
</svg>
